<svg width="200" height="200" viewBox="0 0 200 200" fill="none" xmlns="http://www.w3.org/2000/svg">
<path fill-rule="evenodd" clip-rule="evenodd" d="M73.4596 54.4302C74.6107 56.3691 75.7123 58.2184 76.8112 60.073C79.9361 65.3459 83.0541 70.6227 86.1983 75.8864C86.3631 76.1615 86.7106 76.4326 87.0252 76.5155C104.041 80.9526 121.063 85.3699 138.086 89.7807C138.546 89.9005 138.84 90.1005 139.064 90.5323C140.356 93.0384 141.693 95.5261 143.011 98.0191C143.118 98.2231 143.216 98.4363 143.382 98.7746C142.39 98.564 141.515 98.3837 140.643 98.1902C122.031 94.0427 103.422 89.8926 84.8096 85.7516C84.3659 85.6542 84.0843 85.466 83.8742 85.0567C79.4279 76.4445 74.9706 67.8375 70.4982 59.2385C70.288 58.8344 70.3086 58.5659 70.5888 58.2092C71.5394 56.9995 72.4528 55.761 73.4596 54.4302Z" fill="#24B3AB"/>
<path fill-rule="evenodd" clip-rule="evenodd" d="M67.1099 62.4931C67.4449 63.2058 67.7352 63.8106 68.0125 64.4195C72.7466 74.7547 77.4851 85.087 82.2019 95.4305C82.4041 95.8719 82.6496 96.085 83.1377 96.175C89.7147 97.3956 96.2887 98.6301 102.863 99.8659C112.078 101.596 121.294 103.33 130.511 105.061C135.177 105.939 139.842 106.816 144.508 107.692C144.777 107.74 145.044 107.804 145.502 107.901C145.151 108.057 144.956 108.151 144.758 108.228C140.792 109.782 136.806 111.297 132.869 112.909C131.798 113.348 130.839 113.037 129.851 112.89C121.984 111.704 114.119 110.481 106.255 109.271C97.7647 107.965 89.2756 106.654 80.7851 105.357C80.3388 105.291 80.1164 105.1 79.9489 104.692C74.8118 92.0412 69.6618 79.3991 64.5016 66.7583C64.35 66.3833 64.3456 66.1204 64.6157 65.7813C65.4476 64.7337 66.2361 63.6514 67.1099 62.4931Z" fill="#1A918B"/>
<path fill-rule="evenodd" clip-rule="evenodd" d="M136.365 82.3295C134.421 81.7551 132.662 81.2375 130.903 80.713C117.241 76.6402 103.583 72.5617 89.9162 68.5068C89.2649 68.3145 88.8446 68.0017 88.4749 67.4592C84.6506 61.8308 80.8047 56.2149 76.9429 50.61C76.6439 50.1782 76.6497 49.9125 76.9703 49.5042C78.2224 47.9058 79.4298 46.2755 80.718 44.5733C80.9015 44.7878 81.0574 44.9636 81.2062 45.1462C84.5264 49.2773 87.8409 53.4124 91.177 57.5296C91.4182 57.8257 91.7894 58.0928 92.1576 58.2174C104.649 62.4605 117.144 66.6898 129.649 70.8996C130.279 71.1114 130.646 71.4421 130.939 72.0026C132.588 75.1773 134.275 78.3341 135.948 81.4977C136.062 81.7164 136.167 81.9378 136.365 82.3295Z" fill="#34D1C9"/>
<path fill-rule="evenodd" clip-rule="evenodd" d="M61.7843 69.1384C62.57 71.289 63.3051 73.2929 64.0387 75.2996C68.6097 87.8352 73.1849 100.371 77.7429 112.912C77.9364 113.445 78.1862 113.662 78.7957 113.733C84.2866 114.369 89.7746 115.046 95.2612 115.718C100.98 116.417 106.699 117.125 112.42 117.823C113.701 117.98 114.978 118.121 116.257 118.276C116.592 118.317 116.926 118.38 117.476 118.468C117.083 118.643 116.89 118.738 116.686 118.818C111.896 120.692 107.094 122.545 102.32 124.459C101.366 124.843 100.47 124.614 99.5606 124.542C94.6777 124.131 89.8006 123.676 84.922 123.233C82.0264 122.97 79.1308 122.713 76.2394 122.411C76.0185 122.39 75.7224 122.072 75.6444 121.838C74.3417 117.927 73.0708 114.008 71.7855 110.091C67.7359 97.7427 63.6863 85.3953 59.6122 73.0563C59.4274 72.4944 59.4765 72.1041 59.8534 71.6544C60.499 70.8821 61.0781 70.067 61.7843 69.1384Z" fill="#106964"/>
<path fill-rule="evenodd" clip-rule="evenodd" d="M91.4653 31.0774C93.389 32.7021 95.1885 34.2825 97.0645 35.7758C97.7505 36.3224 98.5852 36.7293 99.407 37.0808C105.353 39.6258 111.307 42.1446 117.266 44.6606C117.757 44.8681 118.101 45.1477 118.349 45.6238C120.503 49.7368 122.685 53.8346 124.857 57.9365C124.941 58.0943 125.006 58.2617 125.126 58.5219C124.857 58.4417 124.668 58.4001 124.487 58.3309C114.866 54.6746 105.246 51.0169 95.6304 47.3509C95.3358 47.2388 95.0267 47.0797 94.813 46.861C92.0357 43.9921 89.2744 41.1108 86.5087 38.2309C86.4308 38.1506 86.3672 38.0579 86.2748 37.9388C87.9963 35.6623 89.7106 33.3954 91.4653 31.0774Z" fill="#34D1C9"/>
<path fill-rule="evenodd" clip-rule="evenodd" d="M84.4499 131.391C80.5563 132.912 76.6627 134.428 72.7012 135.974C72.2058 134.21 71.7206 132.506 71.2469 130.801C66.2932 112.985 61.3425 95.1665 56.3744 77.3527C56.2444 76.8849 56.2892 76.5417 56.6112 76.1819C56.9246 75.8331 57.1918 75.4443 57.5644 74.9654C58.0973 76.7479 58.5941 78.3975 59.0823 80.0513C64.0186 96.7068 68.9549 113.364 73.8826 130.025C74.0024 130.432 74.1801 130.602 74.635 130.63C77.6794 130.796 80.7209 130.991 83.7653 131.179C83.992 131.193 84.2173 131.226 84.4426 131.252C84.4455 131.301 84.4484 131.345 84.4499 131.391Z" fill="#0B4D49"/>
<path fill-rule="evenodd" clip-rule="evenodd" d="M109.835 29.5548C105.631 27.3433 101.015 25.8612 97.1371 22.9065C98.9511 20.504 100.759 18.1112 102.648 15.6132C105.115 20.2729 107.533 24.8398 109.952 29.4082C109.911 29.458 109.872 29.5064 109.835 29.5548Z" fill="#34D1C9"/>
<path d="M9.81506 183.757V147.005H27.2384C31.4025 147.005 35.0826 147.766 38.2787 149.288C41.4748 150.811 43.9586 152.955 45.7301 155.72C47.5017 158.485 48.3875 161.705 48.3875 165.381C48.3875 169.056 47.5017 172.276 45.7301 175.041C43.9586 177.806 41.4748 179.95 38.2787 181.473C35.0826 182.995 31.4025 183.757 27.2384 183.757H9.81506ZM18.6911 176.774H26.8001C30.6354 176.774 33.6945 175.75 35.9775 173.702C38.2604 171.655 39.4019 168.881 39.4019 165.381C39.4019 161.88 38.2604 159.107 35.9775 157.059C33.6945 155.011 30.6354 153.988 26.8001 153.988H18.6911V176.774ZM67.6737 184.387C64.642 184.387 61.7107 183.993 58.8798 183.205C56.049 182.418 53.7752 181.394 52.0584 180.134L55.0719 173.729C56.7156 174.884 58.6698 175.811 60.9345 176.511C63.1991 177.211 65.4638 177.561 67.7285 177.561C70.2488 177.561 72.1117 177.203 73.3171 176.485C74.5225 175.768 75.1252 174.814 75.1252 173.624C75.1252 172.749 74.769 172.022 74.0568 171.445C73.3445 170.867 72.4313 170.403 71.3172 170.053C70.2032 169.703 68.6964 169.318 66.797 168.898C63.8749 168.233 61.4824 167.568 59.6195 166.903C57.7566 166.238 56.1586 165.171 54.8253 163.701C53.4921 162.23 52.8255 160.27 52.8255 157.82C52.8255 155.685 53.4282 153.751 54.6336 152.019C55.839 150.286 57.6562 148.912 60.0852 147.897C62.5143 146.882 65.4821 146.375 68.9887 146.375C71.436 146.375 73.8285 146.655 76.1662 147.215C78.5039 147.775 80.5494 148.58 82.3027 149.63L79.5632 156.088C76.0201 154.163 72.477 153.2 68.9339 153.2C66.45 153.2 64.6146 153.585 63.4274 154.355C62.2403 155.125 61.6467 156.14 61.6467 157.4C61.6467 158.66 62.3316 159.597 63.7014 160.209C65.0711 160.822 67.1623 161.425 69.9749 162.02C72.897 162.686 75.2895 163.351 77.1524 164.016C79.0153 164.681 80.6133 165.731 81.9466 167.166C83.2798 168.601 83.9464 170.543 83.9464 172.994C83.9464 175.094 83.3346 177.01 82.1109 178.743C80.8873 180.475 79.0518 181.849 76.6045 182.864C74.1572 183.879 71.1803 184.387 67.6737 184.387ZM90.0282 183.757V147.005H98.9042V176.826H118.136V183.757H90.0282ZM148.38 175.566V164.803H156.489V179.714C154.407 181.219 151.996 182.374 149.257 183.179C146.517 183.984 143.759 184.387 140.983 184.387C137.002 184.387 133.422 183.573 130.244 181.945C127.066 180.318 124.573 178.06 122.765 175.172C120.957 172.285 120.053 169.021 120.053 165.381C120.053 161.74 120.957 158.477 122.765 155.589C124.573 152.701 127.085 150.444 130.299 148.816C133.513 147.188 137.13 146.375 141.148 146.375C144.508 146.375 147.558 146.917 150.298 148.002C153.037 149.087 155.338 150.662 157.201 152.727L151.503 157.768C148.763 155.003 145.458 153.62 141.586 153.62C139.139 153.62 136.965 154.11 135.066 155.09C133.166 156.07 131.687 157.453 130.628 159.238C129.569 161.023 129.039 163.071 129.039 165.381C129.039 167.656 129.569 169.686 130.628 171.471C131.687 173.256 133.157 174.647 135.038 175.645C136.92 176.643 139.066 177.141 141.476 177.141C144.033 177.141 146.334 176.616 148.38 175.566ZM175.994 155.09C180.56 155.09 184.067 156.131 186.514 158.214C188.961 160.297 190.185 163.438 190.185 167.638V183.757H182.186V180.239C180.578 182.864 177.583 184.177 173.2 184.177C170.935 184.177 168.972 183.809 167.31 183.074C165.648 182.339 164.379 181.324 163.502 180.029C162.625 178.734 162.187 177.264 162.187 175.619C162.187 172.994 163.219 170.928 165.283 169.423C167.346 167.918 170.533 167.166 174.844 167.166H181.638C181.638 165.381 181.071 164.007 179.939 163.044C178.807 162.082 177.108 161.6 174.844 161.6C173.273 161.6 171.73 161.837 170.214 162.309C168.698 162.782 167.41 163.421 166.351 164.226L163.283 158.503C164.89 157.418 166.817 156.578 169.063 155.983C171.31 155.388 173.62 155.09 175.994 155.09ZM175.337 178.664C176.798 178.664 178.095 178.34 179.227 177.693C180.359 177.045 181.163 176.091 181.638 174.831V171.944H175.775C172.268 171.944 170.515 173.046 170.515 175.251C170.515 176.301 170.944 177.133 171.803 177.745C172.661 178.358 173.839 178.664 175.337 178.664Z" fill="#3A3A3A"/>
</svg>
