<svg width="178" height="200" viewBox="0 0 178 200" fill="none" xmlns="http://www.w3.org/2000/svg">
<g clip-path="url(#clip0_101_2)">
<g clip-path="url(#clip1_101_2)">
<g clip-path="url(#clip2_101_2)">
<path d="M178 103.951C178 78.5261 166.743 55.6917 148.962 40.1128C133.363 22.355 110.5 11.1111 85.0445 11.1111C38.1515 11.1111 0 49.215 0 96.0494C0 121.468 11.2535 144.298 29.0279 159.878C44.6268 177.642 67.4937 188.889 92.9555 188.889C93.1218 188.889 93.2837 188.877 93.45 188.877C93.6163 188.877 93.7782 188.889 93.9445 188.889C140.367 188.889 178 151.303 178 104.938C178 104.772 177.988 104.611 177.988 104.444C177.988 104.278 178 104.117 178 103.951ZM33.2821 146.165C24.8866 134.357 19.8926 119.974 19.7897 104.444C20.0567 63.9289 52.8821 31.1428 93.45 30.8761C108.999 30.9789 123.401 35.9667 135.223 44.3517C148.776 57.4778 157.234 75.8183 157.234 96.0494C157.234 135.804 124.849 168.148 85.0445 168.148C64.7881 168.148 46.4246 159.702 33.2821 146.165V146.165ZM1.97802 96.0494C1.97802 50.3033 39.2412 13.0867 85.0445 13.0867C104.542 13.0867 122.476 19.8461 136.664 31.1211C123.882 23.4411 108.928 19.0122 92.9555 19.0122C46.0625 19.0122 7.91099 57.1161 7.91099 103.951C7.91099 119.899 12.3432 134.831 20.0289 147.595C8.74369 133.428 1.97747 115.518 1.97802 96.0494V96.0494ZM92.9555 177.037C73.0195 177.037 54.9286 169.027 41.721 156.069C53.9318 164.897 68.9016 170.123 85.0445 170.123C125.941 170.123 159.211 136.894 159.211 96.0494C159.211 79.9272 153.978 64.9761 145.139 52.78C158.113 65.9711 166.133 84.0394 166.134 103.951C166.134 144.251 133.306 177.037 92.9555 177.037V177.037Z" fill="#2E8555"/>
<g clip-path="url(#clip3_101_2)">
<g clip-path="url(#clip4_101_2)">
<g clip-path="url(#clip5_101_2)">
<g clip-path="url(#clip6_101_2)">
<g clip-path="url(#clip7_101_2)">
<g clip-path="url(#clip8_101_2)">
<g clip-path="url(#clip9_101_2)">
<path d="M35.603 109.994V90.0064H41.9042C44.3547 90.0064 46.2567 90.8319 47.6103 92.4829C48.96 94.134 49.6349 96.5425 49.6349 99.7086C49.6349 103.069 48.96 105.623 47.6103 107.371C46.2567 109.12 44.3547 109.994 41.9042 109.994H35.603ZM38.5202 107.342H41.6416C43.1975 107.342 44.4091 106.76 45.2765 105.594C46.14 104.429 46.5718 102.71 46.5718 100.437V98.9802C46.5718 96.9019 46.14 95.3285 45.2765 94.2602C44.4091 93.1919 43.1975 92.6577 41.6416 92.6577H38.5202V107.342ZM58.795 110.343C56.8113 110.343 55.1873 109.842 53.9232 108.84C52.6591 107.841 52.027 106.322 52.027 104.283L52.0562 103.671H55.0901L55.0609 104.254C55.0609 105.361 55.4013 106.216 56.082 106.818C56.7626 107.42 57.667 107.721 58.795 107.721C60.0397 107.721 60.9868 107.453 61.6364 106.917C62.2898 106.385 62.6166 105.643 62.6166 104.691C62.6166 103.992 62.426 103.419 62.0448 102.972C61.6675 102.525 61.191 102.17 60.6153 101.905C60.0436 101.645 59.2617 101.36 58.2699 101.049C57.0252 100.641 56.0139 100.243 55.236 99.8543C54.458 99.4658 53.7968 98.887 53.2522 98.1178C52.7077 97.3525 52.4354 96.3483 52.4354 95.1052C52.4354 93.3376 53.0422 91.9876 54.2558 91.0553C55.4732 90.1229 57.0155 89.6567 58.8825 89.6567C60.7495 89.6567 62.2762 90.1326 63.4626 91.0844C64.6489 92.0362 65.2421 93.4638 65.2421 95.3674V95.717H62.2082V95.3382C62.2082 94.3865 61.9009 93.6387 61.2863 93.0948C60.6756 92.5509 59.8841 92.279 58.9117 92.279C57.8809 92.279 57.0544 92.5023 56.432 92.9491C55.8097 93.3959 55.4985 94.0368 55.4985 94.8721C55.4985 95.4936 55.6833 96.0123 56.0528 96.4279C56.4223 96.8475 56.8891 97.1835 57.4531 97.436C58.0171 97.6885 58.7755 97.9605 59.7285 98.2518C60.9926 98.6597 62.0176 99.0579 62.8033 99.4464C63.5929 99.8349 64.2697 100.408 64.8337 101.165C65.3977 101.923 65.6797 102.914 65.6797 104.137C65.6797 106.293 65.0612 107.867 63.8243 108.857C62.5913 109.848 60.9148 110.343 58.795 110.343ZM68.8303 109.994V90.0064H71.7475V107.284H80.0325V109.994H68.8303ZM88.6325 109.994V105.186H81.0477V102.826C82.0979 100.961 83.0761 98.8676 83.9824 96.5445C84.8848 94.2253 85.6277 91.9293 86.2112 89.6567H88.9534C88.6227 91.2884 88.1132 93.0074 87.4247 94.8138C86.7324 96.6202 86.0225 98.2518 85.2952 99.7086C84.5639 101.165 83.9843 102.205 83.5565 102.826H88.6325V97.0864C89.177 95.8044 89.6535 94.3185 90.0619 92.6286H91.3747V102.826H93.4167V105.186H91.3747V109.994H88.6325ZM102.752 101.981V99.4464H110.716V109.994H108.82L108.236 107.779C107.031 109.489 105.29 110.343 103.014 110.343C100.467 110.343 98.5219 109.483 97.18 107.762C95.838 106.045 95.1671 103.457 95.1671 100C95.1671 96.5814 95.8769 94.0019 97.2967 92.2615C98.7164 90.525 100.729 89.6567 103.335 89.6567C104.736 89.6567 105.996 89.9287 107.116 90.4725C108.232 91.0164 109.111 91.8322 109.753 92.92C110.395 94.0077 110.716 95.3285 110.716 96.8825H107.711C107.711 95.3674 107.313 94.2214 106.515 93.4444C105.718 92.6675 104.648 92.279 103.306 92.279C101.673 92.279 100.418 92.8714 99.5429 94.0563C98.6678 95.2411 98.2302 96.9796 98.2302 99.2716V100.728C98.2302 103.04 98.6483 104.782 99.4846 105.955C100.321 107.132 101.566 107.721 103.219 107.721C104.716 107.721 105.84 107.265 106.591 106.352C107.338 105.439 107.711 104.089 107.711 102.302V101.981H102.752ZM117.28 110.343C116.268 110.343 115.354 110.027 114.538 109.393C113.721 108.764 113.312 107.643 113.312 106.031C113.312 104.069 113.977 102.71 115.308 101.952C116.642 101.195 118.544 100.816 121.014 100.816V98.9802C121.014 98.2421 120.858 97.673 120.547 97.2729C120.236 96.8766 119.672 96.6785 118.855 96.6785C118.077 96.6785 117.517 96.8863 117.175 97.302C116.836 97.7216 116.667 98.2324 116.667 98.8346V99.2133H113.954C113.935 99.0968 113.925 98.8831 113.925 98.5723C113.925 97.2321 114.382 96.1871 115.296 95.4373C116.21 94.6914 117.426 94.3185 118.943 94.3185C120.537 94.3185 121.737 94.6973 122.542 95.4548C123.351 96.2123 123.756 97.2904 123.756 98.6889V106.934C123.756 107.265 123.834 107.517 123.989 107.692C124.145 107.867 124.339 107.954 124.573 107.954H125.448V109.877C125.02 110.13 124.446 110.256 123.727 110.256C123.085 110.256 122.54 110.085 122.093 109.743C121.646 109.405 121.344 108.935 121.189 108.333H121.043C120.168 109.673 118.913 110.343 117.28 110.343ZM118.126 107.954C118.923 107.954 119.604 107.624 120.168 106.963C120.732 106.303 121.014 105.419 121.014 104.312V103.088C119.458 103.088 118.256 103.283 117.408 103.671C116.564 104.06 116.142 104.778 116.142 105.827C116.142 106.585 116.301 107.129 116.62 107.459C116.943 107.789 117.445 107.954 118.126 107.954ZM127.753 109.994V90.0064H135.892C137.837 90.0064 139.328 90.5153 140.367 91.5331C141.409 92.5548 141.93 93.9106 141.93 95.6005C141.93 96.8242 141.619 97.8925 140.997 98.8054C140.375 99.7183 139.519 100.369 138.43 100.758L142.397 109.994H139.159L135.571 101.311H130.67V109.994H127.753ZM130.67 98.6889H135.687C136.66 98.6889 137.422 98.4072 137.975 97.8439C138.531 97.2806 138.809 96.5328 138.809 95.6005C138.809 94.6875 138.546 93.9689 138.021 93.4444C137.496 92.92 136.728 92.6577 135.717 92.6577H130.67V98.6889Z" fill="#2E8555"/>
</g>
</g>
</g>
</g>
</g>
</g>
</g>
</g>
</g>
</g>
<defs>
<clipPath id="clip0_101_2">
<rect width="178" height="200" fill="white"/>
</clipPath>
<clipPath id="clip1_101_2">
<rect width="178" height="200" fill="white"/>
</clipPath>
<clipPath id="clip2_101_2">
<rect width="178" height="200" fill="white"/>
</clipPath>
<clipPath id="clip3_101_2">
<rect width="106.8" height="20.6865" fill="white" transform="translate(35.6 89.6567)"/>
</clipPath>
<clipPath id="clip4_101_2">
<rect width="106.8" height="20.6865" fill="white" transform="translate(35.6 89.6567)"/>
</clipPath>
<clipPath id="clip5_101_2">
<rect width="106.8" height="20.6865" fill="white" transform="translate(35.6 89.6567)"/>
</clipPath>
<clipPath id="clip6_101_2">
<rect width="106.8" height="20.6865" fill="white" transform="translate(35.6 89.6567)"/>
</clipPath>
<clipPath id="clip7_101_2">
<rect width="106.8" height="20.6865" fill="white" transform="translate(35.6 89.6567)"/>
</clipPath>
<clipPath id="clip8_101_2">
<rect width="106.8" height="20.6865" fill="white" transform="translate(35.6 89.6567)"/>
</clipPath>
<clipPath id="clip9_101_2">
<rect width="106.8" height="20.6865" fill="white" transform="translate(35.6 89.6567)"/>
</clipPath>
</defs>
</svg>
